<?xml version="1.0" standalone="no"?>
<!DOCTYPE svg PUBLIC "-//W3C//DTD SVG 20010904//EN"
 "http://www.w3.org/TR/2001/REC-SVG-20010904/DTD/svg10.dtd">
<svg version="1.0" xmlns="http://www.w3.org/2000/svg"
 width="632.000000pt" height="632.000000pt" viewBox="0 0 632.000000 632.000000"
 preserveAspectRatio="xMidYMid meet">
<metadata>
Created by potrace 1.11, written by Peter Selinger 2001-2013
</metadata>
<g transform="translate(0.000000,632.000000) scale(0.100000,-0.100000)"
fill="#000000" stroke="none">
<path d="M2996 6193 c-4 -4 -35 -8 -69 -10 -73 -3 -162 -10 -162 -13 0 -3 -39
-11 -75 -15 -19 -2 -35 -4 -35 -5 0 -4 -87 -23 -107 -24 -10 0 -18 -4 -18 -9
0 -5 -7 -7 -15 -3 -8 3 -15 1 -15 -5 0 -6 -5 -7 -11 -3 -6 3 -14 2 -18 -2 -5
-9 -105 -44 -141 -50 -8 -2 -16 -8 -18 -13 -2 -6 -15 -11 -28 -11 -13 0 -24
-4 -24 -8 0 -5 -18 -15 -40 -22 -22 -7 -40 -17 -40 -22 0 -5 -4 -7 -9 -4 -4 3
-19 -3 -31 -14 -12 -11 -27 -17 -31 -14 -5 3 -9 0 -9 -5 0 -6 -7 -11 -15 -11
-8 0 -15 -5 -15 -11 0 -5 -4 -8 -9 -4 -5 3 -13 0 -16 -5 -4 -6 -17 -16 -28
-21 -49 -22 -97 -56 -90 -64 5 -4 3 -5 -4 -2 -6 4 -18 1 -26 -8 -8 -8 -21 -16
-28 -17 -8 -2 -26 -16 -41 -32 -16 -15 -28 -26 -28 -22 0 3 -15 -10 -34 -29
-19 -18 -36 -31 -39 -28 -3 2 -10 -5 -17 -16 -6 -12 -15 -19 -20 -16 -5 3 -11
-4 -15 -15 -3 -11 -13 -20 -21 -20 -8 0 -13 -4 -9 -9 3 -6 -3 -14 -12 -20 -10
-6 -15 -11 -11 -11 4 0 -17 -24 -45 -54 -29 -30 -59 -63 -67 -75 -8 -12 -22
-24 -32 -27 -10 -3 -17 -8 -17 -12 3 -21 -2 -32 -13 -26 -8 5 -9 2 -5 -10 4
-10 3 -15 -3 -11 -6 3 -14 -5 -20 -19 -5 -14 -18 -34 -30 -46 -11 -11 -17 -20
-14 -20 3 0 -2 -7 -10 -16 -9 -8 -13 -20 -10 -26 4 -6 3 -8 -3 -5 -5 3 -20
-15 -34 -41 -13 -26 -28 -50 -34 -54 -5 -4 -6 -8 -1 -8 5 0 1 -9 -9 -20 -10
-11 -14 -20 -9 -20 5 0 4 -4 -1 -8 -12 -8 -38 -61 -39 -80 -1 -7 -7 -16 -14
-21 -7 -4 -14 -14 -16 -22 -1 -8 -9 -29 -19 -48 -9 -19 -17 -40 -17 -48 0 -7
-4 -13 -9 -13 -5 0 -7 -9 -4 -20 3 -12 0 -20 -8 -20 -7 0 -10 -3 -6 -6 3 -3
-1 -23 -8 -45 -8 -21 -11 -39 -8 -39 3 0 -2 -10 -13 -22 -12 -13 -13 -18 -4
-13 12 7 13 6 3 -7 -7 -8 -11 -17 -8 -20 3 -3 -1 -20 -8 -39 -7 -19 -12 -43
-12 -54 0 -11 -3 -22 -7 -25 -4 -4 -9 -23 -10 -43 -2 -20 -5 -37 -8 -37 -3 0
-5 -12 -4 -27 1 -16 -1 -32 -4 -38 -6 -10 -14 -70 -16 -117 -1 -16 -4 -28 -7
-28 -4 0 -7 -15 -7 -32 -1 -74 -10 -196 -15 -205 -3 -5 -2 -15 3 -23 5 -9 5
-19 -2 -27 -7 -9 -7 -13 0 -13 6 0 7 -13 2 -35 -4 -19 -4 -35 1 -35 5 0 4 -11
-1 -25 -6 -15 -6 -27 0 -30 5 -3 6 -16 2 -28 -9 -28 -9 -48 2 -65 4 -7 4 -18
-1 -25 -5 -7 -8 -23 -6 -37 5 -37 0 -149 -12 -265 -3 -27 -6 -58 -6 -67 0 -15
-3 -16 -21 -5 -11 7 -31 22 -44 35 -13 12 -30 22 -39 22 -8 0 -15 6 -15 13 0
8 -4 7 -10 -3 -5 -8 -10 -10 -10 -3 0 14 -33 10 -38 -5 -2 -7 -8 -10 -13 -6
-5 3 -12 -2 -15 -10 -3 -9 -13 -16 -22 -16 -8 0 -12 -3 -9 -7 4 -3 0 -15 -10
-25 -9 -10 -13 -18 -10 -18 4 0 -2 -15 -12 -33 -15 -27 -19 -52 -17 -125 0
-51 -2 -92 -5 -92 -4 0 -3 -16 1 -36 5 -20 7 -45 5 -55 -2 -11 1 -19 7 -19 7
0 6 -5 -1 -14 -8 -9 -8 -16 -2 -20 5 -4 9 -19 7 -34 -1 -15 2 -33 7 -40 5 -6
7 -12 4 -12 -3 0 0 -20 7 -44 8 -25 11 -47 8 -50 -3 -4 0 -6 6 -6 7 0 12 -13
12 -30 0 -16 4 -30 8 -30 4 0 9 -10 10 -22 4 -54 7 -73 14 -79 5 -3 9 -17 10
-32 1 -15 6 -27 11 -27 4 0 5 -4 2 -10 -3 -5 -1 -10 5 -10 6 0 9 -4 5 -10 -3
-5 1 -25 9 -45 8 -19 12 -35 9 -35 -3 0 1 -8 8 -17 12 -14 12 -16 0 -8 -8 5
-4 -7 9 -26 14 -19 23 -35 22 -37 -8 -6 11 -62 20 -62 6 0 8 -3 5 -7 -4 -3 0
-15 10 -25 9 -10 13 -18 10 -18 -7 0 9 -20 61 -78 17 -20 32 -32 32 -26 0 5 5
2 10 -6 9 -13 10 -13 10 0 1 11 4 10 15 -4 10 -14 15 -15 15 -6 0 12 3 11 16
-1 8 -9 16 -22 18 -30 1 -8 8 -24 14 -36 7 -13 10 -23 6 -23 -3 0 -1 -6 5 -13
6 -8 8 -17 4 -20 -3 -4 -2 -7 4 -7 6 0 9 -9 6 -20 -3 -12 0 -20 6 -20 7 0 9
-4 6 -10 -3 -5 -2 -10 4 -10 5 0 8 -8 7 -17 -4 -21 14 -63 25 -63 4 0 6 -9 4
-20 -2 -11 1 -22 6 -25 5 -4 7 -11 4 -16 -4 -5 -2 -9 3 -9 5 0 14 -18 21 -39
6 -22 18 -52 26 -67 8 -15 12 -31 9 -36 -3 -4 -1 -8 4 -8 8 0 23 -35 21 -48 0
-2 7 -14 15 -28 9 -13 14 -24 11 -24 -3 0 4 -17 15 -37 11 -21 20 -43 20 -50
0 -7 5 -13 12 -13 6 0 8 -3 5 -6 -7 -7 17 -55 41 -86 7 -9 15 -23 16 -32 2
-16 76 -129 89 -134 4 -2 7 -8 7 -14 0 -5 6 -15 12 -23 28 -29 48 -56 48 -64
0 -5 7 -12 16 -15 9 -4 14 -9 11 -13 -4 -3 3 -14 15 -24 11 -11 18 -19 14 -19
-4 0 4 -11 18 -24 15 -13 26 -26 26 -30 0 -7 25 -38 58 -72 12 -13 22 -28 22
-34 0 -6 5 -8 10 -5 6 3 10 -2 10 -11 0 -10 3 -15 6 -12 3 3 48 -36 101 -88
53 -52 97 -94 99 -94 2 0 18 -13 36 -30 17 -16 35 -30 41 -30 5 0 18 -10 28
-22 11 -11 19 -18 19 -14 0 4 11 -4 24 -18 13 -15 28 -26 35 -26 6 0 11 -4 11
-10 0 -5 7 -10 15 -10 9 0 18 -7 21 -15 4 -8 10 -12 15 -9 5 3 9 0 9 -5 0 -6
6 -11 13 -11 7 0 19 -9 27 -19 7 -11 17 -18 21 -16 4 3 12 -2 19 -10 7 -8 19
-15 27 -15 8 0 11 -4 8 -10 -3 -5 3 -10 14 -10 11 0 24 -6 28 -13 4 -8 22 -21
38 -29 53 -28 99 -54 135 -76 19 -12 41 -20 48 -17 6 2 12 0 12 -5 0 -5 8 -9
18 -8 9 0 31 -5 49 -10 17 -6 34 -8 37 -4 3 3 6 1 6 -4 0 -5 8 -10 18 -11 24
-1 97 -11 97 -14 0 -3 57 -9 84 -9 14 0 28 -6 33 -12 5 -9 8 -10 8 -1 0 8 30
12 93 13 50 1 99 2 107 2 8 0 21 5 28 11 8 6 12 6 12 -1 0 -6 7 -9 16 -5 9 3
30 7 48 8 17 2 32 4 34 5 1 1 11 4 22 5 11 1 21 3 23 5 3 2 40 11 55 12 6 1
12 4 12 8 0 6 28 17 90 35 23 7 47 21 58 34 8 9 11 10 7 4 -3 -7 -1 -13 4 -13
6 0 11 4 11 10 0 5 12 13 28 16 15 4 29 10 32 13 3 3 36 22 75 41 38 19 84 45
102 58 19 12 35 22 37 22 2 0 26 15 54 32 27 18 63 42 80 53 17 10 28 23 26
27 -3 4 2 8 10 8 9 0 25 9 36 20 11 11 20 17 20 13 0 -4 9 2 20 13 30 30 48
44 57 44 5 0 15 9 23 20 8 11 20 20 26 20 7 0 21 11 32 25 11 13 22 22 25 18
4 -3 9 2 13 11 3 9 11 16 16 16 5 0 25 16 44 35 19 20 34 32 34 28 0 -5 8 4
18 20 10 15 22 24 25 20 4 -3 7 -1 7 6 0 6 32 44 70 82 39 39 70 78 70 87 0 8
3 12 7 9 7 -8 39 34 35 46 -1 4 6 7 15 7 9 0 14 3 10 6 -6 7 28 57 71 103 13
14 35 47 50 73 15 26 31 48 35 48 5 0 5 5 2 10 -3 5 -1 10 4 10 6 0 11 9 11
20 0 11 5 20 11 20 5 0 15 14 20 30 6 17 15 30 21 30 5 0 7 4 4 9 -4 5 -3 11
1 13 8 3 44 76 41 81 -2 1 5 13 15 27 9 13 17 33 17 43 0 10 4 16 8 13 4 -2 9
5 9 16 1 12 6 24 10 27 4 3 9 13 11 21 3 14 21 58 44 105 5 12 10 28 12 38 1
9 5 20 9 23 4 4 7 16 7 26 0 10 4 18 8 18 5 0 9 6 10 13 2 30 13 62 22 65 6 2
8 8 4 13 -3 5 -2 15 3 22 4 6 8 18 9 25 6 37 12 39 79 36 55 -3 70 0 88 16 11
11 25 20 31 20 5 0 7 3 3 6 -9 9 16 33 28 26 6 -3 7 -2 3 2 -3 4 9 28 28 53
19 24 37 55 40 69 4 14 11 21 18 17 6 -3 8 -3 4 2 -4 4 -2 17 4 29 7 11 13 27
14 35 2 8 7 17 12 20 5 3 8 14 7 23 -2 9 3 22 11 29 8 6 11 15 8 21 -3 5 -1
14 4 21 6 7 11 15 11 20 1 4 1 8 2 10 0 1 2 9 4 17 5 21 26 82 35 100 9 18 22
77 20 86 -1 4 2 10 7 13 4 3 15 27 25 52 12 36 13 50 5 59 -9 10 -9 11 1 6 12
-7 13 -5 16 59 1 17 5 35 8 40 10 16 6 305 -3 311 -5 3 -7 10 -4 15 4 5 1 9
-5 9 -6 0 -9 4 -6 8 3 5 -8 24 -25 43 -16 19 -29 37 -29 42 0 4 -6 7 -14 7 -8
0 -16 6 -19 14 -4 11 -16 12 -53 5 -26 -5 -50 -12 -53 -17 -8 -10 -40 -30 -76
-46 -38 -18 -43 -10 -41 67 0 33 -2 61 -6 63 -4 3 -3 16 2 29 7 18 6 25 -3 25
-8 0 -8 3 2 9 9 6 10 11 2 15 -6 4 -8 12 -5 18 3 5 7 54 9 108 2 54 6 103 9
109 4 6 2 11 -5 11 -10 0 -10 3 -1 12 8 8 8 17 1 31 -6 11 -7 17 -2 14 7 -5
10 129 3 158 -1 6 -1 12 0 15 8 21 6 40 -3 40 -8 0 -8 3 1 12 7 7 8 17 2 29
-7 11 -7 20 0 24 6 4 7 13 2 23 -5 9 -7 29 -6 45 2 15 -2 27 -8 27 -7 0 -6 5
1 14 9 11 9 15 -1 19 -11 4 -11 6 0 6 8 1 10 7 5 19 -5 9 -8 26 -8 37 1 11 -3
26 -8 33 -6 8 -5 12 4 12 9 0 10 3 4 8 -6 4 -11 18 -12 32 -1 14 -4 41 -8 60
-3 19 -8 46 -10 60 -5 30 -13 65 -15 65 -1 0 -3 11 -5 25 -8 61 -32 153 -53
210 -3 8 -4 21 -3 28 1 6 -3 12 -8 12 -6 0 -8 7 -5 15 4 8 1 15 -6 15 -7 0
-10 8 -7 20 3 13 0 20 -10 20 -8 0 -12 4 -8 9 3 5 -2 27 -11 48 -37 84 -59
128 -69 135 -5 4 -6 8 -2 8 9 0 -23 61 -38 72 -5 4 -6 8 -2 8 5 0 2 7 -5 15
-30 34 -36 43 -31 49 3 3 -2 8 -11 12 -9 3 -16 15 -16 25 0 10 -4 19 -10 19
-5 0 -10 7 -10 15 0 8 -5 15 -10 15 -6 0 -14 8 -17 17 -7 18 -21 37 -61 81
-12 14 -22 28 -22 32 0 3 -29 37 -65 75 -36 37 -65 72 -65 76 0 5 -4 9 -10 9
-5 0 -25 16 -44 35 -20 19 -38 35 -41 35 -3 0 -16 10 -29 23 -38 37 -79 71
-116 97 -19 14 -43 33 -52 43 -9 10 -19 17 -21 15 -3 -2 -16 6 -29 17 -32 27
-77 54 -110 66 -16 6 -28 15 -28 21 0 5 -4 7 -9 4 -5 -3 -14 1 -21 8 -6 8 -25
18 -41 21 -16 4 -29 10 -29 13 0 8 -81 46 -92 44 -5 -1 -8 3 -8 9 0 5 -4 7
-10 4 -5 -3 -10 -2 -10 3 0 5 -7 9 -15 10 -8 1 -22 3 -30 4 -8 1 -15 5 -15 10
0 4 -9 8 -19 8 -11 0 -23 5 -26 11 -4 6 -13 8 -20 5 -7 -2 -16 -2 -20 2 -4 4
-10 7 -13 8 -52 8 -92 18 -92 24 0 4 -11 6 -25 5 -14 -2 -25 0 -25 4 0 4 -8 7
-17 7 -10 1 -31 4 -48 8 -16 4 -39 9 -50 10 -11 2 -20 4 -20 5 0 4 -39 10 -90
15 -27 3 -50 5 -50 6 0 7 -62 11 -183 13 -78 1 -142 -2 -142 -7 0 -5 -7 -3
-15 4 -12 10 -15 10 -15 -1 0 -11 -2 -11 -10 1 -7 11 -10 11 -10 2 0 -9 -5
-10 -19 -3 -10 6 -21 7 -25 4z"/>
</g>
</svg>
