<svg id="linkedin-logo" xmlns="http://www.w3.org/2000/svg" width="31" height="31" viewBox="0 0 31 31">
  <g id="post-linkedin">
    <path id="Path_4" data-name="Path 4" d="M27.9,0H3.1A3.109,3.109,0,0,0,0,3.1V27.9A3.109,3.109,0,0,0,3.1,31H27.9A3.109,3.109,0,0,0,31,27.9V3.1A3.109,3.109,0,0,0,27.9,0ZM9.3,26.35H4.65V12.4H9.3ZM6.975,9.765a2.79,2.79,0,1,1,2.79-2.79A2.778,2.778,0,0,1,6.975,9.765ZM26.35,26.35H21.7V18.135a2.325,2.325,0,0,0-4.65,0V26.35H12.4V12.4h4.65v1.86a5.007,5.007,0,0,1,3.875-2.17,5.492,5.492,0,0,1,5.425,5.425Z" fill="#564f9f"/>
  </g>
</svg>
