<svg id="twitter-logo-on-black-background" xmlns="http://www.w3.org/2000/svg" width="31" height="31" viewBox="0 0 31 31">
  <g id="post-twitter">
    <path id="Path_3" data-name="Path 3" d="M27.9,0H3.1A3.109,3.109,0,0,0,0,3.1V27.9A3.109,3.109,0,0,0,3.1,31H27.9A3.109,3.109,0,0,0,31,27.9V3.1A3.109,3.109,0,0,0,27.9,0ZM24.335,11.315c-.155,7.13-4.65,12.09-11.47,12.4A11.282,11.282,0,0,1,6.2,21.855a8.229,8.229,0,0,0,6.045-1.7A4.187,4.187,0,0,1,8.37,17.2a6.252,6.252,0,0,0,1.7,0A4.222,4.222,0,0,1,6.82,13.02a3.125,3.125,0,0,0,1.7.465C7.13,12.71,6.2,9.765,7.285,7.9a12.282,12.282,0,0,0,8.525,4.34c-1.085-4.34,4.805-6.665,7.13-3.72a10.442,10.442,0,0,0,2.635-.93,4.382,4.382,0,0,1-1.7,2.325,8.885,8.885,0,0,0,2.17-.62C25.885,10.075,25.11,10.695,24.335,11.315Z" fill="#564f9f"/>
  </g>
</svg>
